<?xml version="1.0" encoding="UTF-8" standalone="no"?>
<!DOCTYPE svg PUBLIC "-//W3C//DTD SVG 1.1//EN" "http://www.w3.org/Graphics/SVG/1.1/DTD/svg11.dtd">
<svg width="100%" height="100%" viewBox="0 0 24 24" version="1.1" xmlns="http://www.w3.org/2000/svg" xmlns:xlink="http://www.w3.org/1999/xlink" xml:space="preserve" xmlns:serif="http://www.serif.com/" style="fill-rule:evenodd;clip-rule:evenodd;stroke-linecap:round;stroke-linejoin:round;stroke-miterlimit:1.5;">
    <g transform="matrix(0.829768,0,0,0.829768,0.98509,3.56803)">
        <g transform="matrix(1,0,0,1,-0.450744,0)">
            <g transform="matrix(1.70946,0,0,1.50141,-1.99249,2.4565)">
                <rect x="2.78" y="2.838" width="7.037" height="7.037" style="fill:white;stroke:rgb(128,128,128);stroke-width:1.25px;"/>
            </g>
            <g transform="matrix(6.12323e-17,-1,1,6.12323e-17,5.4995,31.6014)">
                <path d="M24.413,16.642L14.79,16.642L17.196,9.29L22.007,9.29L24.413,16.642Z" style="fill:white;stroke:rgb(128,128,128);stroke-width:2.01px;"/>
            </g>
        </g>
        <g transform="matrix(1,0,0,1,2.09862,-3.67632)">
            <g transform="matrix(1.70946,0,0,1.50141,-1.99249,2.4565)">
                <rect x="2.78" y="2.838" width="7.037" height="7.037" style="fill:white;stroke:rgb(128,128,128);stroke-width:1.25px;"/>
            </g>
            <g transform="matrix(6.12323e-17,-1,1,6.12323e-17,5.4995,31.6014)">
                <path d="M24.413,16.642L14.79,16.642L17.196,9.29L22.007,9.29L24.413,16.642Z" style="fill:white;stroke:rgb(128,128,128);stroke-width:2.01px;"/>
            </g>
        </g>
    </g>
</svg>
