<?xml version="1.0" encoding="UTF-8" standalone="no"?>
<!DOCTYPE svg PUBLIC "-//W3C//DTD SVG 1.1//EN" "http://www.w3.org/Graphics/SVG/1.1/DTD/svg11.dtd">
<svg width="100%" height="100%" viewBox="0 0 24 24" version="1.1" xmlns="http://www.w3.org/2000/svg" xmlns:xlink="http://www.w3.org/1999/xlink" xml:space="preserve" xmlns:serif="http://www.serif.com/" style="fill-rule:evenodd;clip-rule:evenodd;stroke-linecap:round;stroke-linejoin:round;stroke-miterlimit:1.5;">
    <g transform="matrix(1.05638,0,0,1.05638,-3.04734,-2.80328)">
        <path d="M15.574,6.078C14.694,5.93 13.795,5.93 12.914,6.078L12.484,7.404C11.651,7.626 10.867,8.003 10.175,8.516L8.869,8.026C8.205,8.622 7.644,9.325 7.211,10.105L7.98,11.269C7.634,12.058 7.44,12.906 7.409,13.768L6.212,14.482C6.264,15.374 6.464,16.25 6.803,17.076L8.193,17.2C8.594,17.963 9.136,18.643 9.791,19.204L9.603,20.586C10.332,21.101 11.142,21.491 11.999,21.74L12.963,20.731C13.809,20.893 14.679,20.893 15.526,20.731L16.489,21.74C17.346,21.491 18.156,21.101 18.886,20.586L18.698,19.204C19.352,18.643 19.894,17.963 20.296,17.2L21.685,17.076C22.025,16.25 22.225,15.374 22.277,14.482L21.079,13.768C21.048,12.906 20.855,12.058 20.509,11.269L21.278,10.105C20.844,9.325 20.284,8.622 19.619,8.026L18.314,8.516C17.621,8.003 16.837,7.626 16.004,7.404L15.574,6.078ZM14.244,13.209C14.688,13.209 15.049,13.569 15.049,14.013C15.049,14.457 14.688,14.818 14.244,14.818C13.8,14.818 13.44,14.457 13.44,14.013C13.44,13.569 13.8,13.209 14.244,13.209Z" style="fill:white;stroke:rgb(128,128,128);stroke-width:1.58px;"/>
    </g>
</svg>
