<?xml version="1.0" encoding="UTF-8" standalone="no"?>
<!DOCTYPE svg PUBLIC "-//W3C//DTD SVG 1.1//EN" "http://www.w3.org/Graphics/SVG/1.1/DTD/svg11.dtd">
<svg width="100%" height="100%" viewBox="0 0 24 24" version="1.1" xmlns="http://www.w3.org/2000/svg" xmlns:xlink="http://www.w3.org/1999/xlink" xml:space="preserve" xmlns:serif="http://www.serif.com/" style="fill-rule:evenodd;clip-rule:evenodd;stroke-linecap:round;stroke-linejoin:round;stroke-miterlimit:1.5;">
    <g transform="matrix(0.693769,0,0,0.693769,1.61906,4.77993)">
        <g transform="matrix(1,0,0,1,-3.82067,-2.37619)">
            <circle cx="15.821" cy="8.877" r="4.645" style="fill:none;stroke:black;stroke-width:2.4px;"/>
        </g>
        <g transform="matrix(1.05083,0,0,0.953839,-1.07057,-0.453177)">
            <path d="M19.116,18.799C19.116,15.133 16.418,12.161 13.09,12.161C12.656,12.161 12.217,12.161 11.782,12.161C8.455,12.161 5.757,15.133 5.757,18.799C5.757,21.363 5.757,23.691 5.757,23.691L19.116,23.691L19.116,18.799Z" style="fill:none;stroke:black;stroke-width:2.39px;"/>
        </g>
    </g>
    <g>
        <g transform="matrix(0.693769,0,0,0.693769,5.73346,2.56961)">
            <g transform="matrix(1,0,0,1,-3.82067,-2.37619)">
                <circle cx="15.821" cy="8.877" r="4.645" style="fill:white;stroke:rgb(128,128,128);stroke-width:2.4px;"/>
            </g>
            <g transform="matrix(1.05083,0,0,0.953839,-1.07057,-0.453177)">
                <path d="M19.116,18.799C19.116,15.133 16.418,12.161 13.09,12.161C12.656,12.161 12.217,12.161 11.782,12.161C8.455,12.161 5.757,15.133 5.757,18.799C5.757,21.363 5.757,23.691 5.757,23.691L19.116,23.691L19.116,18.799Z" style="fill:white;stroke:rgb(128,128,128);stroke-width:2.39px;"/>
            </g>
        </g>
        <g transform="matrix(0.693769,0,0,0.693769,1.61906,4.77993)">
            <g transform="matrix(1,0,0,1,-3.82067,-2.37619)">
                <circle cx="15.821" cy="8.877" r="4.645" style="fill:white;stroke:rgb(128,128,128);stroke-width:2.4px;"/>
            </g>
            <g transform="matrix(1.05083,0,0,0.953839,-1.07057,-0.453177)">
                <path d="M19.116,18.799C19.116,15.133 16.418,12.161 13.09,12.161C12.656,12.161 12.217,12.161 11.782,12.161C8.455,12.161 5.757,15.133 5.757,18.799C5.757,21.363 5.757,23.691 5.757,23.691L19.116,23.691L19.116,18.799Z" style="fill:white;stroke:rgb(128,128,128);stroke-width:2.39px;"/>
            </g>
        </g>
    </g>
</svg>
